<svg width="96" height="40" viewBox="0 0 96 40" fill="none" xmlns="http://www.w3.org/2000/svg">
<path d="M40.0692 39.3853C40.0878 39.3853 40.1017 39.3712 40.097 39.3524" stroke="black" stroke-miterlimit="10"/>
<path d="M40.6537 39.1982C40.3151 38.1376 39.7398 37.1381 39.1367 36.2137C37.6289 33.8908 35.6897 31.8636 33.5881 30.0945C31.7835 28.5741 29.8443 27.2273 27.8262 26.0166C27.9143 26.1339 28.0025 26.2512 28.0906 26.3685C28.2205 26.7017 28.021 26.7017 28.1185 26.5468C28.1509 26.4952 28.1695 26.4154 28.1881 26.3591C28.2669 26.1527 28.3412 25.9462 28.42 25.7444C28.6705 25.0593 28.9164 24.3695 29.153 23.6796C29.886 21.5586 30.5541 19.414 31.1479 17.246C31.8299 14.7543 32.4144 12.2296 32.7624 9.66744C33.0546 7.52291 33.2495 5.2376 32.7299 3.11183C32.5304 2.29531 32.1964 1.49757 31.6489 0.854676C31.3799 0.54027 30.9948 0.150781 30.5866 0.0475433C30.2061 -0.051002 29.7468 0.0428507 29.385 0.155474C27.3437 0.793672 25.9566 2.89597 25.0009 4.69325C23.9199 6.72516 23.1452 8.92131 22.5003 11.1315C21.4797 14.6276 20.7885 18.2268 20.241 21.8261C20.0694 22.9617 19.9116 24.0973 19.7632 25.2329C19.8189 25.0968 19.8745 24.956 19.9348 24.82C19.9256 24.8293 19.9163 24.834 19.907 24.8434C20.1807 24.8434 20.4544 24.8434 20.7281 24.8434C20.7189 24.834 20.7096 24.8293 20.7003 24.82C20.756 24.956 20.8117 25.0968 20.872 25.2329C20.357 21.2442 19.7122 17.2601 18.7379 13.3558C18.107 10.8312 17.3369 8.32535 16.2559 5.95557C15.3049 3.86265 13.9363 1.3521 11.7466 0.352564C11.3012 0.150781 10.8141 0.000617004 10.3223 0.0146949C9.40374 0.0475433 8.68929 1.10808 8.34135 1.8589C7.49237 3.67964 7.51556 5.85233 7.6733 7.81854C7.87279 10.3666 8.38774 12.8913 9.00012 15.3643C9.92333 19.0902 11.0924 22.7693 12.4517 26.3544C12.4749 26.4108 12.4888 26.4905 12.5213 26.5421C12.6187 26.6876 12.41 26.7158 12.5491 26.3638C12.6373 26.2465 12.7254 26.1292 12.8136 26.0119C9.53828 27.9828 6.41606 30.315 3.84128 33.1822C2.50517 34.6792 1.26185 36.3357 0.408232 38.1705C0.180909 38.6585 -0.231984 39.3108 0.166991 39.7988C0.640195 40.3807 1.4567 39.5501 0.988138 38.9682C0.97886 38.9636 0.969581 38.9495 0.960303 38.9401C1.01133 39.1325 1.05773 39.3202 1.10876 39.5126C1.15515 39.3624 1.21546 39.2123 1.27577 39.0668C1.23402 39.1653 1.36392 38.865 1.41031 38.7665C1.49382 38.5834 1.58196 38.4051 1.67475 38.2315C2.21754 37.1897 2.87167 36.209 3.5954 35.2892C4.75057 33.8204 6.06812 32.4877 7.47381 31.2676C8.4063 30.4558 9.38518 29.7003 10.3919 28.987C10.9393 28.5975 11.496 28.2268 12.0574 27.8608C12.3404 27.6778 12.6234 27.4994 12.9064 27.3258C13.1847 27.1569 13.5559 27.0208 13.6626 26.6782C13.7878 26.2653 13.4074 25.6271 13.2682 25.2517C12.9388 24.346 12.6187 23.4403 12.3125 22.5253C11.394 19.7941 10.5682 17.0255 9.90942 14.2146C9.23672 11.3521 8.64754 8.37227 8.76352 5.41122C8.80527 4.39292 8.92589 3.30423 9.36662 2.37978C9.56147 1.97152 9.77488 1.65242 10.0996 1.36148C10.1785 1.29109 10.211 1.27701 10.2666 1.23009C10.4151 1.10339 10.4847 1.18316 10.3038 1.17847C10.313 1.17847 10.3269 1.17378 10.3362 1.17378C10.1414 1.23009 10.2202 1.17378 10.3455 1.18316C10.4337 1.18785 10.5264 1.19255 10.6146 1.19724C10.3687 1.17847 10.7445 1.22539 10.8465 1.25355C10.9161 1.27232 10.9811 1.29578 11.046 1.31925C11.0878 1.33332 11.1249 1.3474 11.1667 1.36617C11.2966 1.4131 11.046 1.30986 11.1759 1.37087C11.3615 1.46003 11.5378 1.55388 11.7094 1.6665C12.0156 1.86359 11.9878 1.84951 12.2244 2.0513C12.7162 2.47363 13.1801 3.01798 13.5048 3.47317C14.8549 5.34083 15.741 7.53699 16.4647 9.71437C17.7822 13.6749 18.5941 17.8045 19.2297 21.9293C19.3271 22.5628 19.4199 23.1963 19.508 23.8298C19.5637 24.2193 19.6147 24.6135 19.6658 25.003C19.6982 25.247 19.6936 25.491 19.8884 25.6693C20.1343 25.8899 20.4637 25.8899 20.7096 25.6693C21.0807 25.3361 21.0111 24.407 21.0761 23.9424C21.1735 23.2385 21.2756 22.5346 21.3869 21.8307C21.5818 20.5778 21.7952 19.3296 22.0318 18.086C22.4215 16.0541 22.8715 14.0363 23.4282 12.0419C24.1519 9.45627 25.0287 6.85186 26.4019 4.53839C26.8288 3.82042 27.2231 3.24792 27.7566 2.66603C27.9607 2.44079 28.1788 2.22962 28.4107 2.02783C28.4571 1.9856 28.5082 1.94806 28.5546 1.91052C28.6613 1.82136 28.4757 1.96683 28.6102 1.86828C28.7077 1.7979 28.8051 1.72751 28.9118 1.66181C29.0834 1.55388 29.2597 1.46003 29.4453 1.37087C29.5613 1.31455 29.3108 1.42248 29.4453 1.37087C29.487 1.35679 29.5242 1.33802 29.5659 1.32394C29.6401 1.30048 29.7144 1.27232 29.7886 1.25355C29.9092 1.2207 30.2293 1.18316 30.0113 1.20193C30.0994 1.19724 30.1829 1.19255 30.2711 1.18785C30.3778 1.17847 30.517 1.24416 30.285 1.17847C30.2943 1.17847 30.3082 1.18316 30.3128 1.18316C30.169 1.18785 30.169 1.09869 30.3221 1.21601C30.401 1.27701 30.4474 1.30517 30.5402 1.38964C31.2082 1.99968 31.519 2.92882 31.6907 3.8345C32.1917 6.47645 31.7093 9.34365 31.2036 11.9434C30.2664 16.7533 28.7865 21.4835 27.0561 26.0588C26.9587 26.3122 26.8612 26.5468 27.019 26.819C27.1489 27.0396 27.4133 27.1381 27.6221 27.2648C27.9422 27.4572 28.2576 27.659 28.5685 27.8608C29.1623 28.2409 29.7422 28.6351 30.3175 29.0433C32.1546 30.3479 33.8851 31.8073 35.4392 33.4497C36.4552 34.5243 37.397 35.674 38.1949 36.9269C38.4779 37.3681 38.7424 37.8232 38.9836 38.2878C39.0671 38.4474 39.1413 38.6069 39.2202 38.7665C39.2527 38.8322 39.2805 38.9025 39.313 38.9729C39.3269 39.0058 39.3455 39.0433 39.3594 39.0762C39.4197 39.2123 39.313 38.9589 39.364 39.0856C39.4197 39.2263 39.4754 39.3671 39.5217 39.5126C39.7676 40.2259 40.8857 39.9208 40.6537 39.1982Z" fill="black"/>
<path d="M24.1473 33.4773C24.7212 33.4773 25.1864 33.0066 25.1864 32.4261C25.1864 31.8456 24.7212 31.375 24.1473 31.375C23.5733 31.375 23.1081 31.8456 23.1081 32.4261C23.1081 33.0066 23.5733 33.4773 24.1473 33.4773Z" fill="#F761A6"/>
<path d="M16.4971 33.4773C17.071 33.4773 17.5363 33.0066 17.5363 32.4261C17.5363 31.8456 17.071 31.375 16.4971 31.375C15.9232 31.375 15.4579 31.8456 15.4579 32.4261C15.4579 33.0066 15.9232 33.4773 16.4971 33.4773Z" fill="#F761A6"/>
<path d="M22.3797 35.8752C22.2962 35.9456 22.5235 35.7766 22.3797 35.8752C22.3008 35.9268 22.2173 35.9878 22.1292 36.0394C21.9946 36.1192 21.8554 36.1896 21.7116 36.2506C21.7998 36.2131 21.7116 36.2506 21.6745 36.2647C21.6328 36.2788 21.5864 36.2975 21.5446 36.3116C21.4518 36.3444 21.3544 36.3726 21.257 36.3961C21.1549 36.4242 21.0482 36.4477 20.9415 36.4665C20.9461 36.4665 20.7791 36.4899 20.8534 36.4805C20.793 36.4899 20.7374 36.4946 20.6771 36.4993C20.4219 36.5181 20.1621 36.5181 19.9069 36.4805C19.2667 36.3914 18.6683 36.1286 18.1162 35.7954C17.5409 35.4435 17.0121 36.3538 17.5873 36.7058C18.7611 37.4191 20.1296 37.7616 21.4797 37.4284C22.0642 37.283 22.6534 37.0202 23.1127 36.6213C23.3261 36.4383 23.3029 36.0629 23.1127 35.8752C22.9039 35.6593 22.5931 35.6922 22.3797 35.8752Z" fill="black"/>
<path d="M37.3877 34.5002C37.2717 34.5894 37.4295 34.4768 37.4527 34.4627C37.5037 34.4299 37.5547 34.4064 37.6104 34.3782C37.6707 34.3501 37.6614 34.3548 37.5918 34.3829C37.6197 34.3735 37.6475 34.3642 37.6753 34.3548C37.731 34.336 37.7867 34.3219 37.8424 34.3078C37.8795 34.2985 38.065 34.2797 37.9027 34.2938C37.963 34.2891 38.0186 34.2844 38.079 34.2844C38.1393 34.2844 38.1949 34.2844 38.2552 34.2891C38.2831 34.2891 38.3156 34.2938 38.3434 34.2985C38.2645 34.2891 38.2552 34.2891 38.3202 34.2985C38.4408 34.3266 38.5522 34.3595 38.6728 34.397C38.7331 34.4205 38.7284 34.4205 38.6635 34.3876C38.6913 34.4017 38.7192 34.4111 38.747 34.4252C38.8027 34.4533 38.8583 34.4815 38.914 34.5143C38.9697 34.5472 39.0207 34.5847 39.0764 34.6176C39.1274 34.6551 39.1274 34.6551 39.0764 34.6129C39.1042 34.6316 39.1274 34.6551 39.1506 34.6786C39.2527 34.7677 39.3408 34.8663 39.429 34.9695C39.4707 35.0211 39.4707 35.0211 39.4336 34.9742C39.4522 35.0024 39.4754 35.0305 39.4939 35.0587C39.531 35.115 39.5682 35.176 39.6006 35.237C39.6331 35.298 39.6609 35.359 39.6934 35.42C39.6377 35.298 39.7166 35.4904 39.7259 35.5139C39.7676 35.6359 39.7955 35.7626 39.8187 35.894C39.7908 35.7391 39.8187 35.9456 39.8233 35.9737C39.828 36.0347 39.828 36.1004 39.8233 36.1614C39.8233 36.1943 39.7955 36.3961 39.8233 36.2365C39.814 36.2975 39.8048 36.3585 39.7862 36.4195C39.7723 36.4805 39.7537 36.5368 39.7352 36.5932C39.7259 36.6213 39.7166 36.6495 39.7027 36.6776C39.7305 36.6072 39.7352 36.6025 39.7073 36.6635C39.6795 36.7152 39.6517 36.7715 39.6192 36.8231C39.6053 36.8466 39.4846 37.0014 39.5774 36.8888C39.4986 36.9826 39.4104 37.0718 39.3176 37.1516C39.081 37.3487 39.1042 37.7804 39.3176 37.9822C39.5682 38.2121 39.8883 38.1933 40.1388 37.9822C40.9692 37.2924 41.1873 36.0488 40.7976 35.0587C40.3707 33.9747 39.4011 33.1863 38.2367 33.1112C37.6197 33.0737 37.049 33.2942 36.5666 33.6743C36.3253 33.862 36.3532 34.3078 36.5666 34.5049C36.8217 34.7396 37.1325 34.7067 37.3877 34.5002Z" fill="black"/>
<path d="M55.5271 21.5627H48.8745C47.3342 21.5627 46.7172 20.4177 46.7172 19.3524C46.7172 18.3154 47.3064 17.1704 48.8745 17.1704H55.8333V13.9231C55.8333 13.5617 55.6014 13.2755 55.1931 13.2755H49.1064C47.5662 13.2755 46.9492 12.0789 46.9492 11.0136C46.9492 9.97657 47.5383 8.77995 49.1064 8.77995H56.8354C59.7349 8.77995 60.8669 10.1549 60.8669 12.5716V18.4186C60.8669 27.7429 55.8333 30.8119 49.1064 31.1497C47.8492 31.2013 46.643 30.4458 46.643 28.916C46.643 27.8227 47.26 26.9686 48.5451 26.8372C52.0338 26.4712 54.655 25.4576 55.5271 21.5627ZM64.4902 32.1868V10.3661C64.4902 8.67671 65.6964 7.79449 67.0603 7.79449C68.4196 7.79449 69.6305 8.67671 69.6305 10.3661V32.1868H64.4902Z" fill="#F761A6"/>
<path d="M76.6078 27.5129V25.1479C76.6078 23.4585 77.7909 22.9376 79.1502 22.9376C80.4863 22.9376 81.6925 23.482 81.6925 25.1479V27.5129H86.2621V25.1479C86.2621 23.4585 87.4451 22.9376 88.8044 22.9376C90.1405 22.9376 91.3467 23.482 91.3467 25.1479V27.5129H93.838C95.4061 27.5129 95.9953 28.55 95.9953 29.5918C95.9953 30.657 95.3783 31.6706 93.838 31.6706H74.1119C72.5717 31.6706 71.9547 30.657 71.9547 29.5918C71.9547 28.5547 72.5439 27.5129 74.1119 27.5129H76.6078ZM72.6784 15.1197C72.6784 11.5627 75.0398 8.44208 79.3543 8.44208H88.6003C92.9148 8.44208 95.2762 11.558 95.2762 15.1197V15.4294C95.2762 18.9864 92.9148 22.0789 88.6003 22.0789H79.3543C75.0398 22.0789 72.6784 18.9864 72.6784 15.4294V15.1197ZM89.9364 15.0681C89.9364 13.6931 88.8833 12.6795 87.19 12.6795H80.7693C79.0759 12.6795 78.0228 13.6931 78.0228 15.0681V15.4857C78.0228 16.8607 79.0759 17.8743 80.7693 17.8743H87.19C88.8833 17.8743 89.9364 16.8607 89.9364 15.4857V15.0681Z" fill="#F761A6"/>
</svg>
